<svg width="50" height="50" viewBox="0 0 50 50" fill="none" xmlns="http://www.w3.org/2000/svg">
<circle cx="25" cy="25" r="25" fill="#00CCFF"/>
<path d="M19.0089 14.4134L20.7384 13.892C21.3092 13.7201 21.9229 13.7618 22.4653 14.0092C23.0076 14.2567 23.4413 14.6929 23.6857 15.2366L24.8982 17.933C25.1086 18.4008 25.1673 18.9228 25.0659 19.4256C24.9646 19.9284 24.7083 20.3869 24.333 20.7366L22.4875 22.4562C22.2402 22.6911 22.4277 23.6062 23.3312 25.1723C24.2357 26.7393 24.9348 27.3589 25.2571 27.2625L27.675 26.5232C28.1651 26.3733 28.6898 26.3805 29.1756 26.5438C29.6614 26.7072 30.0839 27.0184 30.3839 27.4339L32.1071 29.8223C32.4552 30.3046 32.6163 30.8968 32.5607 31.489C32.505 32.0812 32.2363 32.633 31.8044 33.042L30.4723 34.3036C30.0423 34.7108 29.5119 34.9967 28.9353 35.1321C28.3587 35.2674 27.7565 35.2474 27.1902 35.0741C24.3991 34.2196 21.8143 31.6839 19.4009 27.5027C16.9821 23.3152 16.0687 19.783 16.7053 16.8973C16.8337 16.3159 17.1149 15.7791 17.5198 15.3425C17.9247 14.9059 18.4387 14.5852 19.0089 14.4134Z" fill="white"/>
</svg>
