<svg width="50" height="50" viewBox="0 0 50 50" fill="none" xmlns="http://www.w3.org/2000/svg">
<circle cx="25" cy="25" r="25" fill="#00CCFF"/>
<path d="M33.875 33.875L29.2021 29.1938M31.7917 22.9375C31.7917 25.2858 30.8588 27.5379 29.1983 29.1983C27.5379 30.8588 25.2858 31.7917 22.9375 31.7917C20.5892 31.7917 18.3371 30.8588 16.6767 29.1983C15.0162 27.5379 14.0833 25.2858 14.0833 22.9375C14.0833 20.5892 15.0162 18.3371 16.6767 16.6767C18.3371 15.0162 20.5892 14.0833 22.9375 14.0833C25.2858 14.0833 27.5379 15.0162 29.1983 16.6767C30.8588 18.3371 31.7917 20.5892 31.7917 22.9375V22.9375Z" stroke="white" stroke-width="2" stroke-linecap="round"/>
</svg>
