<svg width="24" height="34" viewBox="0 0 24 34" fill="none" xmlns="http://www.w3.org/2000/svg">
<path d="M5.32828 9.375C5.71369 9.375 6.0833 9.21038 6.35583 8.91735C6.62835 8.62433 6.78145 8.2269 6.78145 7.8125C6.78145 7.3981 6.62835 7.00067 6.35583 6.70765C6.0833 6.41462 5.71369 6.25 5.32828 6.25C4.94288 6.25 4.57326 6.41462 4.30074 6.70765C4.02821 7.00067 3.87511 7.3981 3.87511 7.8125C3.87511 8.2269 4.02821 8.62433 4.30074 8.91735C4.57326 9.21038 4.94288 9.375 5.32828 9.375ZM6.78145 14.0625C6.78145 14.4769 6.62835 14.8743 6.35583 15.1674C6.0833 15.4604 5.71369 15.625 5.32828 15.625C4.94288 15.625 4.57326 15.4604 4.30074 15.1674C4.02821 14.8743 3.87511 14.4769 3.87511 14.0625C3.87511 13.6481 4.02821 13.2507 4.30074 12.9576C4.57326 12.6646 4.94288 12.5 5.32828 12.5C5.71369 12.5 6.0833 12.6646 6.35583 12.9576C6.62835 13.2507 6.78145 13.6481 6.78145 14.0625ZM5.32828 21.875C5.51911 21.875 5.70808 21.8346 5.88438 21.7561C6.06069 21.6775 6.22089 21.5624 6.35583 21.4174C6.49077 21.2723 6.5978 21.1 6.67083 20.9104C6.74386 20.7209 6.78145 20.5177 6.78145 20.3125C6.78145 20.1073 6.74386 19.9041 6.67083 19.7146C6.5978 19.525 6.49077 19.3527 6.35583 19.2076C6.22089 19.0626 6.06069 18.9475 5.88438 18.8689C5.70808 18.7904 5.51911 18.75 5.32828 18.75C4.94288 18.75 4.57326 18.9146 4.30074 19.2076C4.02821 19.5007 3.87511 19.8981 3.87511 20.3125C3.87511 20.7269 4.02821 21.1243 4.30074 21.4174C4.57326 21.7104 4.94288 21.875 5.32828 21.875ZM12.5941 7.8125C12.5941 8.2269 12.441 8.62433 12.1685 8.91735C11.896 9.21038 11.5264 9.375 11.141 9.375C10.7555 9.375 10.3859 9.21038 10.1134 8.91735C9.84089 8.62433 9.68778 8.2269 9.68778 7.8125C9.68778 7.3981 9.84089 7.00067 10.1134 6.70765C10.3859 6.41462 10.7555 6.25 11.141 6.25C11.5264 6.25 11.896 6.41462 12.1685 6.70765C12.441 7.00067 12.5941 7.3981 12.5941 7.8125ZM11.141 15.625C11.5264 15.625 11.896 15.4604 12.1685 15.1674C12.441 14.8743 12.5941 14.4769 12.5941 14.0625C12.5941 13.6481 12.441 13.2507 12.1685 12.9576C11.896 12.6646 11.5264 12.5 11.141 12.5C10.7555 12.5 10.3859 12.6646 10.1134 12.9576C9.84089 13.2507 9.68778 13.6481 9.68778 14.0625C9.68778 14.4769 9.84089 14.8743 10.1134 15.1674C10.3859 15.4604 10.7555 15.625 11.141 15.625ZM12.5941 20.3125C12.5941 20.7269 12.441 21.1243 12.1685 21.4174C11.896 21.7104 11.5264 21.875 11.141 21.875C10.7555 21.875 10.3859 21.7104 10.1134 21.4174C9.84089 21.1243 9.68778 20.7269 9.68778 20.3125C9.68778 19.8981 9.84089 19.5007 10.1134 19.2076C10.3859 18.9146 10.7555 18.75 11.141 18.75C11.5264 18.75 11.896 18.9146 12.1685 19.2076C12.441 19.5007 12.5941 19.8981 12.5941 20.3125ZM16.9536 21.875C17.1445 21.875 17.3334 21.8346 17.5097 21.7561C17.686 21.6775 17.8462 21.5624 17.9812 21.4174C18.1161 21.2723 18.2231 21.1 18.2962 20.9104C18.3692 20.7209 18.4068 20.5177 18.4068 20.3125C18.4068 20.1073 18.3692 19.9041 18.2962 19.7146C18.2231 19.525 18.1161 19.3527 17.9812 19.2076C17.8462 19.0626 17.686 18.9475 17.5097 18.8689C17.3334 18.7904 17.1445 18.75 16.9536 18.75C16.5682 18.75 16.1986 18.9146 15.9261 19.2076C15.6536 19.5007 15.5005 19.8981 15.5005 20.3125C15.5005 20.7269 15.6536 21.1243 15.9261 21.4174C16.1986 21.7104 16.5682 21.875 16.9536 21.875ZM0.968778 33.3333C0.711842 33.3333 0.46543 33.2236 0.283749 33.0282C0.102068 32.8329 0 32.5679 0 32.2917V3.125C0 2.2962 0.306202 1.50134 0.851245 0.915291C1.39629 0.32924 2.13553 0 2.90634 0H14.5317C15.3025 0 16.0417 0.32924 16.5868 0.915291C17.1318 1.50134 17.438 2.2962 17.438 3.125V12.5H20.3443C21.1152 12.5 21.8544 12.8292 22.3994 13.4153C22.9445 14.0013 23.2507 14.7962 23.2507 15.625V32.2917C23.2507 32.5679 23.1486 32.8329 22.9669 33.0282C22.7853 33.2236 22.5388 33.3333 22.2819 33.3333H0.968778ZM1.93756 3.125V31.25H5.81267V26.0417C5.81267 25.7654 5.91474 25.5004 6.09642 25.3051C6.2781 25.1097 6.52451 25 6.78145 25H16.4692C16.7262 25 16.9726 25.1097 17.1543 25.3051C17.3359 25.5004 17.438 25.7654 17.438 26.0417V31.25H21.3131V15.625C21.3131 15.3487 21.2111 15.0838 21.0294 14.8884C20.8477 14.6931 20.6013 14.5833 20.3443 14.5833H16.4692C16.2123 14.5833 15.9659 14.4736 15.7842 14.2782C15.6025 14.0829 15.5005 13.8179 15.5005 13.5417V3.125C15.5005 2.84873 15.3984 2.58378 15.2167 2.38843C15.035 2.19308 14.7886 2.08333 14.5317 2.08333H2.90634C2.6494 2.08333 2.40299 2.19308 2.22131 2.38843C2.03962 2.58378 1.93756 2.84873 1.93756 3.125ZM15.5005 27.0833H12.5941V31.25H15.5005V27.0833ZM10.6566 27.0833H7.75023V31.25H10.6566V27.0833Z" fill="#00CCFF"/>
</svg>
