<svg width="1513" height="700" viewBox="0 0 1513 700" fill="none" xmlns="http://www.w3.org/2000/svg">
<rect width="1512" height="700" fill="#FFDD15"/>
<path fill-rule="evenodd" clip-rule="evenodd" d="M992.193 354.213C986.602 363.74 986.602 379.185 992.193 388.711L1174.89 700H1512.04V0H1200.08L992.193 354.213Z" fill="black"/>
<path d="M175.422 375.108H192.172C192.172 382.076 194.539 387.347 199.274 390.92C203.473 394.047 209.19 395.61 216.426 395.61C223.305 395.61 228.531 394.091 232.104 391.054C235.141 388.463 236.66 385.158 236.66 381.138C236.66 375.242 234.025 371.311 228.754 369.346C228.039 369.078 218.525 366.443 200.212 361.44C186.097 357.599 179.04 349.514 179.04 337.186C179.04 328.163 182.703 321.061 190.028 315.88C196.549 311.324 204.545 309.046 214.014 309.046C224.466 309.046 233.087 311.637 239.876 316.818C247.112 322.446 250.73 330.039 250.73 339.598H233.98C233.265 328.342 226.387 322.714 213.344 322.714C208.699 322.714 204.813 323.563 201.686 325.26C197.755 327.493 195.79 330.799 195.79 335.176C195.79 341.34 199.587 345.449 207.18 347.504C214.773 349.469 223.975 351.926 234.784 354.874C240.769 356.661 245.459 359.966 248.854 364.79C251.891 369.167 253.41 373.991 253.41 379.262C253.41 389.267 249.435 396.95 241.484 402.31C234.605 406.955 225.895 409.278 215.354 409.278C203.741 409.278 194.405 406.553 187.348 401.104C179.576 395.119 175.601 386.453 175.422 375.108ZM308.677 383.684V372.294C306.711 373.545 303.853 374.483 300.101 375.108C296.706 375.555 293.311 376.001 289.917 376.448C281.609 377.877 277.455 381.719 277.455 387.972C277.455 391.009 279.152 393.332 282.547 394.94C285.137 396.191 288.13 396.816 291.525 396.816C295.634 396.816 299.341 395.833 302.647 393.868C306.667 391.456 308.677 388.061 308.677 383.684ZM323.953 355.946V391.59C323.953 395.074 325.159 396.816 327.571 396.816C329 396.816 330.251 396.727 331.323 396.548V407.134C328.017 408.295 324.801 408.876 321.675 408.876C314.885 408.876 310.955 406.062 309.883 400.434C304.165 406.062 296.17 408.876 285.897 408.876C279.197 408.876 273.703 407.179 269.415 403.784C264.591 400.121 262.179 395.074 262.179 388.642C262.179 380.959 265.037 375.421 270.755 372.026C274.239 369.971 280.269 368.319 288.845 367.068C298.493 365.639 303.317 364.924 303.317 364.924C307.515 363.673 309.615 361.127 309.615 357.286C309.615 351.033 304.835 347.906 295.277 347.906C285.718 347.906 280.626 351.569 280.001 358.894H264.725C265.618 343.529 276.115 335.846 296.215 335.846C303.808 335.846 310.106 337.365 315.109 340.402C321.005 343.975 323.953 349.157 323.953 355.946ZM359.016 406.732L332.752 337.722H349.502L367.592 389.446H367.86L385.414 337.722H401.36L374.426 410.752C371.388 418.971 368.708 424.509 366.386 427.368C362.544 432.103 357.05 434.47 349.904 434.47C346.33 434.47 342.802 434.202 339.318 433.666V420.802C343.07 421.427 345.482 421.74 346.554 421.74C349.77 421.74 352.226 420.847 353.924 419.06C355.085 417.809 356.202 415.487 357.274 412.092L359.016 406.732ZM448.645 407V311.324H466.333L510.017 381.808H510.285V311.324H526.231V407H508.543L464.993 336.65H464.591V407H448.645ZM575.634 396.816C582.066 396.816 587.069 394.225 590.642 389.044C593.769 384.577 595.332 378.994 595.332 372.294C595.332 365.683 593.769 360.145 590.642 355.678C587.069 350.497 582.066 347.906 575.634 347.906C569.202 347.906 564.199 350.497 560.626 355.678C557.499 360.145 555.936 365.683 555.936 372.294C555.936 378.994 557.499 384.577 560.626 389.044C564.199 394.225 569.202 396.816 575.634 396.816ZM575.634 408.876C564.735 408.876 556.115 405.437 549.772 398.558C543.697 391.947 540.66 383.193 540.66 372.294C540.66 361.485 543.742 352.73 549.906 346.03C556.159 339.241 564.735 335.846 575.634 335.846C586.533 335.846 595.153 339.285 601.496 346.164C607.571 352.775 610.608 361.485 610.608 372.294C610.608 383.193 607.571 391.947 601.496 398.558C595.153 405.437 586.533 408.876 575.634 408.876ZM653.635 325.796V311.324H731.087V325.796H700.669V407H683.919V325.796H653.635ZM771.792 396.816C778.224 396.816 783.227 394.225 786.8 389.044C789.927 384.577 791.49 378.994 791.49 372.294C791.49 365.683 789.927 360.145 786.8 355.678C783.227 350.497 778.224 347.906 771.792 347.906C765.36 347.906 760.357 350.497 756.784 355.678C753.657 360.145 752.094 365.683 752.094 372.294C752.094 378.994 753.657 384.577 756.784 389.044C760.357 394.225 765.36 396.816 771.792 396.816ZM771.792 408.876C760.893 408.876 752.273 405.437 745.93 398.558C739.855 391.947 736.818 383.193 736.818 372.294C736.818 361.485 739.9 352.73 746.064 346.03C752.317 339.241 760.893 335.846 771.792 335.846C782.691 335.846 791.311 339.285 797.654 346.164C803.729 352.775 806.766 361.485 806.766 372.294C806.766 383.193 803.729 391.947 797.654 398.558C791.311 405.437 782.691 408.876 771.792 408.876ZM875.655 363.45V393.332H905.269C915.989 393.332 921.349 388.285 921.349 378.19C921.349 368.363 915.989 363.45 905.269 363.45H875.655ZM858.905 407V311.324H905.403C914.247 311.324 921.17 313.334 926.173 317.354C931.265 321.374 933.811 327.27 933.811 335.042C933.811 344.69 929.255 351.479 920.143 355.41V355.678C932.113 358.269 938.099 366.487 938.099 380.334C938.099 388.285 935.329 394.583 929.791 399.228C923.627 404.409 914.649 407 902.857 407H858.905ZM875.655 324.992V351.39H902.991C907.1 351.39 910.45 350.229 913.041 347.906C915.721 345.583 917.061 342.323 917.061 338.124C917.061 329.369 912.371 324.992 902.991 324.992H875.655ZM951.11 407V337.722H965.448V351.122H965.716C966.61 347.281 969.066 343.797 973.086 340.67C977.106 337.454 981.394 335.846 985.95 335.846C987.112 335.846 989.032 335.98 991.712 336.248V350.988C988.139 350.541 985.95 350.318 985.146 350.318C979.697 350.318 975.275 352.373 971.88 356.482C968.218 360.77 966.386 366.621 966.386 374.036V407H951.11Z" fill="black"/>
<path d="M1029.98 396.816C1036.41 396.816 1041.41 394.225 1044.99 389.044C1048.11 384.577 1049.68 378.994 1049.68 372.294C1049.68 365.683 1048.11 360.145 1044.99 355.678C1041.41 350.497 1036.41 347.906 1029.98 347.906C1023.55 347.906 1018.54 350.497 1014.97 355.678C1011.84 360.145 1010.28 365.683 1010.28 372.294C1010.28 378.994 1011.84 384.577 1014.97 389.044C1018.54 394.225 1023.55 396.816 1029.98 396.816ZM1029.98 408.876C1019.08 408.876 1010.46 405.437 1004.12 398.558C998.041 391.947 995.004 383.193 995.004 372.294C995.004 361.485 998.086 352.73 1004.25 346.03C1010.5 339.241 1019.08 335.846 1029.98 335.846C1040.88 335.846 1049.5 339.285 1055.84 346.164C1061.91 352.775 1064.95 361.485 1064.95 372.294C1064.95 383.193 1061.91 391.947 1055.84 398.558C1049.5 405.437 1040.88 408.876 1029.98 408.876ZM1078.05 407V311.324H1093.33V365.728L1120.93 337.722H1139.69L1113.16 363.182L1142.24 407H1123.61L1102.44 373.366L1093.33 382.21V407H1078.05ZM1212.47 376.314H1161.55C1161.55 382.121 1163.07 386.9 1166.11 390.652C1169.41 394.761 1174.1 396.816 1180.18 396.816C1188.75 396.816 1194.38 392.975 1197.06 385.292H1211.53C1209.92 392.707 1206.22 398.513 1200.41 402.712C1194.69 406.821 1187.95 408.876 1180.18 408.876C1169.55 408.876 1161.24 405.526 1155.25 398.826C1149.27 392.126 1146.27 383.327 1146.27 372.428C1146.27 362.244 1149.27 353.668 1155.25 346.7C1161.59 339.464 1169.77 335.846 1179.77 335.846C1189.51 335.846 1197.51 339.419 1203.76 346.566C1209.75 353.266 1212.74 361.485 1212.74 371.222C1212.74 372.919 1212.65 374.617 1212.47 376.314ZM1161.55 366.264H1197.19C1196.93 361.172 1195.18 356.839 1191.97 353.266C1188.84 349.693 1184.78 347.906 1179.77 347.906C1174.59 347.906 1170.3 349.648 1166.91 353.132C1163.52 356.616 1161.73 360.993 1161.55 366.264ZM1224.08 407V337.722H1238.42V351.122H1238.69C1239.58 347.281 1242.04 343.797 1246.06 340.67C1250.08 337.454 1254.37 335.846 1258.92 335.846C1260.08 335.846 1262 335.98 1264.68 336.248V350.988C1261.11 350.541 1258.92 350.318 1258.12 350.318C1252.67 350.318 1248.25 352.373 1244.85 356.482C1241.19 360.77 1239.36 366.621 1239.36 374.036V407H1224.08ZM1310.77 338.928V311.324H1327.52V338.928L1323.09 380.334H1315.19L1310.77 338.928ZM1310.1 407V390.25H1328.05V407H1310.1Z" fill="#FFDD15"/>
</svg>
