<svg width="30" height="30" viewBox="0 0 30 30" fill="none" xmlns="http://www.w3.org/2000/svg">
<circle cx="15" cy="15" r="15" fill="#7F7F7F"/>
<path d="M20.8141 9.19351C20.123 8.49547 19.2999 7.94201 18.3927 7.56541C17.4855 7.18881 16.5124 6.99662 15.5302 7.00004C11.4146 7.00004 8.0603 10.3543 8.0603 14.4699C8.0603 15.789 8.40704 17.0704 9.05528 18.201L8 22.0754L11.9573 21.0352C13.0503 21.6307 14.2789 21.9473 15.5302 21.9473C19.6457 21.9473 23 18.593 23 14.4774C23 12.4799 22.2236 10.6031 20.8141 9.19351V9.19351ZM15.5302 20.6809C14.4146 20.6809 13.3216 20.3794 12.3643 19.8141L12.1382 19.6784L9.78643 20.2965L10.4121 18.0051L10.2613 17.7714C9.64152 16.7817 9.31242 15.6377 9.31156 14.4699C9.31156 11.0478 12.1005 8.25884 15.5226 8.25884C17.1809 8.25884 18.7412 8.90708 19.9095 10.083C20.4881 10.6588 20.9465 11.3438 21.2583 12.0981C21.5702 12.8524 21.7292 13.6612 21.7261 14.4774C21.7412 17.8995 18.9523 20.6809 15.5302 20.6809V20.6809ZM18.9372 16.0377C18.7487 15.9473 17.8291 15.495 17.6633 15.4272C17.4899 15.3669 17.3693 15.3367 17.2412 15.5176C17.1131 15.7061 16.7588 16.1282 16.6533 16.2488C16.5477 16.3769 16.4347 16.392 16.2462 16.294C16.0578 16.2036 15.4548 16 14.7462 15.3669C14.1884 14.8694 13.8191 14.2588 13.706 14.0704C13.6005 13.882 13.691 13.784 13.7889 13.686C13.8719 13.6031 13.9774 13.4674 14.0678 13.3619C14.1583 13.2563 14.196 13.1734 14.2563 13.0528C14.3166 12.9247 14.2864 12.8191 14.2412 12.7287C14.196 12.6382 13.8191 11.7186 13.6683 11.3418C13.5176 10.9799 13.3593 11.0252 13.2462 11.0176H12.8844C12.7563 11.0176 12.5603 11.0629 12.3869 11.2513C12.2211 11.4397 11.7387 11.892 11.7387 12.8116C11.7387 13.7312 12.4095 14.6206 12.5 14.7413C12.5905 14.8694 13.8191 16.7538 15.6884 17.5603C16.1332 17.7563 16.4799 17.8694 16.7513 17.9523C17.196 18.0955 17.603 18.0729 17.9271 18.0277C18.2889 17.9749 19.0352 17.5754 19.1859 17.1382C19.3442 16.701 19.3442 16.3317 19.2915 16.2488C19.2387 16.1659 19.1256 16.1282 18.9372 16.0377V16.0377Z" fill="white"/>
</svg>
