<svg width="50" height="50" viewBox="0 0 50 50" fill="none" xmlns="http://www.w3.org/2000/svg">
<circle cx="25" cy="25" r="25" fill="#00CCFF"/>
<g clip-path="url(#clip0_68_432)">
<path d="M29.5833 22.3333H19.8611C19.6769 22.3333 19.5003 22.2602 19.3701 22.1299C19.2398 21.9997 19.1667 21.8231 19.1667 21.6389V18.8611C19.1667 18.6769 19.2398 18.5003 19.3701 18.3701C19.5003 18.2398 19.6769 18.1667 19.8611 18.1667H29.5833C29.7675 18.1667 29.9442 18.2398 30.0744 18.3701C30.2046 18.5003 30.2778 18.6769 30.2778 18.8611V21.6389C30.2778 21.8231 30.2046 21.9997 30.0744 22.1299C29.9442 22.2602 29.7675 22.3333 29.5833 22.3333ZM20.5556 20.9444H28.8889V19.5139H20.5556V20.9444Z" fill="white"/>
<path d="M29.5833 23.7778H19.8611C19.6769 23.7778 19.5003 23.8509 19.3701 23.9812C19.2398 24.1114 19.1667 24.288 19.1667 24.4722V27.1944C19.1667 27.3786 19.2398 27.5553 19.3701 27.6855C19.5003 27.8157 19.6769 27.8889 19.8611 27.8889H27.75L30.2778 25.3194V24.4722C30.2778 24.288 30.2046 24.1114 30.0744 23.9812C29.9442 23.8509 29.7675 23.7778 29.5833 23.7778ZM28.8889 26.5H20.5556V25.1111H28.8889V26.5Z" fill="white"/>
<path d="M22.6806 35.8819V35.8403L22.9028 34.875H17.7778V16.7778H31.6667V23.8958L33.0556 22.5833V16.0833C33.0556 15.8992 32.9824 15.7225 32.8522 15.5923C32.7219 15.462 32.5453 15.3889 32.3611 15.3889H17.0833C16.8992 15.3889 16.7225 15.462 16.5923 15.5923C16.462 15.7225 16.3889 15.8992 16.3889 16.0833V35.5278C16.3889 35.712 16.462 35.8886 16.5923 36.0188C16.7225 36.1491 16.8992 36.2222 17.0833 36.2222H22.6389C22.6446 36.1079 22.6585 35.9942 22.6806 35.8819Z" fill="white"/>
<path d="M30.2778 27.3125L29.7361 27.8611C29.8705 27.8334 29.9937 27.7665 30.0901 27.6689C30.1865 27.5712 30.2518 27.4472 30.2778 27.3125Z" fill="white"/>
<path d="M19.1667 32.7083C19.1667 32.8925 19.2398 33.0691 19.3701 33.1994C19.5003 33.3296 19.6769 33.4028 19.8611 33.4028H23.2222L23.4306 32.5L23.5208 32.1181V32.0833H20.5556V30.6667H24.9583L26.3472 29.2778H19.8611C19.6769 29.2778 19.5003 29.3509 19.3701 29.4812C19.2398 29.6114 19.1667 29.788 19.1667 29.9722V32.7083Z" fill="white"/>
<path d="M38.257 25.5764L35.9167 23.2361C35.8128 23.132 35.6894 23.0493 35.5536 22.993C35.4177 22.9366 35.2721 22.9076 35.125 22.9076C34.9779 22.9076 34.8323 22.9366 34.6964 22.993C34.5606 23.0493 34.4372 23.132 34.3333 23.2361L24.8125 32.8125L24.0278 36.1528C23.9984 36.2969 23.9977 36.4454 24.0258 36.5897C24.0539 36.7341 24.1102 36.8715 24.1915 36.994C24.2728 37.1166 24.3775 37.2219 24.4995 37.304C24.6216 37.386 24.7586 37.4432 24.9028 37.4722C24.9744 37.4794 25.0465 37.4794 25.1181 37.4722C25.2031 37.4861 25.2899 37.4861 25.375 37.4722L28.7431 36.7292L38.257 27.1944C38.3609 27.0912 38.4434 26.9684 38.4997 26.8331C38.5559 26.6978 38.5849 26.5528 38.5849 26.4062C38.5849 26.2597 38.5559 26.1147 38.4997 25.9794C38.4434 25.8441 38.3609 25.7213 38.257 25.6181V25.5764ZM28.0347 35.4653L25.4931 36.0278L26.1111 33.5069L33.25 26.2917L35.2083 28.25L28.0347 35.4653ZM35.9931 27.4653L34.0347 25.5069L35.1389 24.4167L37.1111 26.3889L35.9931 27.4653Z" fill="white"/>
</g>
<defs>
<clipPath id="clip0_68_432">
<rect width="25" height="25" fill="white" transform="translate(15 14)"/>
</clipPath>
</defs>
</svg>
