<svg width="27" height="23" viewBox="0 0 27 23" fill="none" xmlns="http://www.w3.org/2000/svg">
<path d="M10.3717 16.2778C14.9731 16.2778 18.703 12.8583 18.703 8.63889C18.703 4.41944 14.9731 1 10.3717 1C5.77165 1 2.04176 4.41944 2.04176 8.63889C2.04176 9.775 2.31139 10.8528 2.79618 11.8222L1 16.2778L6.20742 15.2556C7.49484 15.9326 8.92325 16.2832 10.3717 16.2778V16.2778Z" stroke="#00CCFF" stroke-width="2" stroke-linejoin="round"/>
<path d="M11.6273 20.6167C13.0001 21.421 14.5571 21.8407 16.1402 21.8334C17.5891 21.8388 19.018 21.4882 20.3059 20.8111L25.5119 21.8334L23.7144 17.3778C24.2106 16.393 24.4697 15.3017 24.4702 14.1945C24.4702 12.4653 23.8438 10.8709 22.7884 9.59031C21.7684 8.3542 20.3481 7.41115 18.7031 6.92365" stroke="#00CCFF" stroke-width="2" stroke-linecap="round" stroke-linejoin="round"/>
<path d="M14.6177 10.0278C13.8656 10.0278 13.2559 9.40595 13.2559 8.63889C13.2559 7.87183 13.8656 7.25 14.6177 7.25C15.3698 7.25 15.9795 7.87183 15.9795 8.63889C15.9795 9.40595 15.3698 10.0278 14.6177 10.0278Z" fill="#00CCFF"/>
<path d="M10.5324 10.0278C9.78031 10.0278 9.17062 9.40595 9.17062 8.63889C9.17062 7.87183 9.78031 7.25 10.5324 7.25C11.2845 7.25 11.8942 7.87183 11.8942 8.63889C11.8942 9.40595 11.2845 10.0278 10.5324 10.0278Z" fill="#00CCFF"/>
<path d="M6.44713 10.0278C5.69504 10.0278 5.08536 9.40595 5.08536 8.63889C5.08536 7.87183 5.69504 7.25 6.44713 7.25C7.19921 7.25 7.8089 7.87183 7.8089 8.63889C7.8089 9.40595 7.19921 10.0278 6.44713 10.0278Z" fill="#00CCFF"/>
</svg>
