<svg width="25" height="34" viewBox="0 0 25 34" fill="none" xmlns="http://www.w3.org/2000/svg">
<path d="M13.8511 32.5C17.1453 28.3203 24.6584 18.1901 24.6584 12.5C24.6584 5.59896 19.1359 0 12.3292 0C5.52245 0 0 5.59896 0 12.5C0 18.1901 7.5131 28.3203 10.8073 32.5C11.5971 33.4961 13.0612 33.4961 13.8511 32.5ZM12.3292 16.6667C10.0624 16.6667 8.21946 14.7982 8.21946 12.5C8.21946 10.2018 10.0624 8.33333 12.3292 8.33333C14.596 8.33333 16.4389 10.2018 16.4389 12.5C16.4389 14.7982 14.596 16.6667 12.3292 16.6667Z" fill="#00CCFF"/>
</svg>
