<svg width="31" height="30" viewBox="0 0 31 30" fill="none" xmlns="http://www.w3.org/2000/svg">
<circle cx="15.5" cy="15" r="15" fill="#7F7F7F"/>
<path d="M23.5 16.7878V22.3334H20.2849V17.159C20.2849 15.8589 19.8197 14.972 18.6563 14.972C17.768 14.972 17.2389 15.5703 17.0067 16.1482C16.9218 16.3549 16.9 16.6427 16.9 16.9321V22.3334H13.6834C13.6834 22.3334 13.727 13.5704 13.6834 12.6618H16.9V14.0326L16.8789 14.0642H16.9V14.0326C17.3268 13.375 18.0897 12.4348 19.7979 12.4348C21.9135 12.4348 23.5 13.8177 23.5 16.7878V16.7878ZM10.3195 8C9.21998 8 8.5 8.72148 8.5 9.67068C8.5 10.5988 9.19893 11.3421 10.2774 11.3421H10.2984C11.4205 11.3421 12.1172 10.5988 12.1172 9.67068C12.0976 8.72148 11.4212 8 10.3202 8H10.3195ZM8.69089 22.3334H11.906V12.6618H8.69089V22.3334Z" fill="white"/>
</svg>
