<svg width="26" height="24" viewBox="0 0 26 24" fill="none" xmlns="http://www.w3.org/2000/svg">
<path d="M21.5536 5H17.75V3.75C17.75 2.75544 17.3493 1.80161 16.636 1.09835C15.9227 0.395088 14.9552 0 13.9464 0H11.4107C10.4019 0 9.43449 0.395088 8.72118 1.09835C8.00787 1.80161 7.60714 2.75544 7.60714 3.75V5H3.80357C2.7948 5 1.82735 5.39509 1.11404 6.09835C0.400732 6.80161 0 7.75544 0 8.75V20C0 20.9946 0.400732 21.9484 1.11404 22.6517C1.82735 23.3549 2.7948 23.75 3.80357 23.75H21.5536C22.5623 23.75 23.5298 23.3549 24.2431 22.6517C24.9564 21.9484 25.3571 20.9946 25.3571 20V8.75C25.3571 7.75544 24.9564 6.80161 24.2431 6.09835C23.5298 5.39509 22.5623 5 21.5536 5ZM10.1429 3.75C10.1429 3.41848 10.2764 3.10054 10.5142 2.86612C10.752 2.6317 11.0745 2.5 11.4107 2.5H13.9464C14.2827 2.5 14.6052 2.6317 14.8429 2.86612C15.0807 3.10054 15.2143 3.41848 15.2143 3.75V5H10.1429V3.75ZM22.8214 20C22.8214 20.3315 22.6879 20.6495 22.4501 20.8839C22.2123 21.1183 21.8898 21.25 21.5536 21.25H3.80357C3.46731 21.25 3.14483 21.1183 2.90706 20.8839C2.66929 20.6495 2.53571 20.3315 2.53571 20V13.125C5.76401 14.3877 9.20552 15.0366 12.6786 15.0375C16.1515 15.0354 19.5928 14.3865 22.8214 13.125V20ZM22.8214 10.3875C19.6244 11.7722 16.1705 12.4872 12.6786 12.4872C9.18663 12.4872 5.73275 11.7722 2.53571 10.3875V8.75C2.53571 8.41848 2.66929 8.10054 2.90706 7.86612C3.14483 7.6317 3.46731 7.5 3.80357 7.5H21.5536C21.8898 7.5 22.2123 7.6317 22.4501 7.86612C22.6879 8.10054 22.8214 8.41848 22.8214 8.75V10.3875Z" fill="#00CCFF"/>
</svg>
