<svg width="1512" height="700" viewBox="0 0 1512 700" fill="none" xmlns="http://www.w3.org/2000/svg">
<rect width="1512" height="700" fill="#FFDD15"/>
<path fill-rule="evenodd" clip-rule="evenodd" d="M992.153 354.213C986.562 363.74 986.562 379.185 992.153 388.711L1174.85 700H1512V0H1200.04L992.153 354.213Z" fill="black"/>
<path d="M175.422 377.108H192.172C192.172 384.076 194.539 389.347 199.274 392.92C203.473 396.047 209.19 397.61 216.426 397.61C223.305 397.61 228.531 396.091 232.104 393.054C235.141 390.463 236.66 387.158 236.66 383.138C236.66 377.242 234.025 373.311 228.754 371.346C228.039 371.078 218.525 368.443 200.212 363.44C186.097 359.599 179.04 351.514 179.04 339.186C179.04 330.163 182.703 323.061 190.028 317.88C196.549 313.324 204.545 311.046 214.014 311.046C224.466 311.046 233.087 313.637 239.876 318.818C247.112 324.446 250.73 332.039 250.73 341.598H233.98C233.265 330.342 226.387 324.714 213.344 324.714C208.699 324.714 204.813 325.563 201.686 327.26C197.755 329.493 195.79 332.799 195.79 337.176C195.79 343.34 199.587 347.449 207.18 349.504C214.773 351.469 223.975 353.926 234.784 356.874C240.769 358.661 245.459 361.966 248.854 366.79C251.891 371.167 253.41 375.991 253.41 381.262C253.41 391.267 249.435 398.95 241.484 404.31C234.605 408.955 225.895 411.278 215.354 411.278C203.741 411.278 194.405 408.553 187.348 403.104C179.576 397.119 175.601 388.453 175.422 377.108ZM308.677 385.684V374.294C306.711 375.545 303.853 376.483 300.101 377.108C296.706 377.555 293.311 378.001 289.917 378.448C281.609 379.877 277.455 383.719 277.455 389.972C277.455 393.009 279.152 395.332 282.547 396.94C285.137 398.191 288.13 398.816 291.525 398.816C295.634 398.816 299.341 397.833 302.647 395.868C306.667 393.456 308.677 390.061 308.677 385.684ZM323.953 357.946V393.59C323.953 397.074 325.159 398.816 327.571 398.816C329 398.816 330.251 398.727 331.323 398.548V409.134C328.017 410.295 324.801 410.876 321.675 410.876C314.885 410.876 310.955 408.062 309.883 402.434C304.165 408.062 296.17 410.876 285.897 410.876C279.197 410.876 273.703 409.179 269.415 405.784C264.591 402.121 262.179 397.074 262.179 390.642C262.179 382.959 265.037 377.421 270.755 374.026C274.239 371.971 280.269 370.319 288.845 369.068C298.493 367.639 303.317 366.924 303.317 366.924C307.515 365.673 309.615 363.127 309.615 359.286C309.615 353.033 304.835 349.906 295.277 349.906C285.718 349.906 280.626 353.569 280.001 360.894H264.725C265.618 345.529 276.115 337.846 296.215 337.846C303.808 337.846 310.106 339.365 315.109 342.402C321.005 345.975 323.953 351.157 323.953 357.946ZM359.016 408.732L332.752 339.722H349.502L367.592 391.446H367.86L385.414 339.722H401.36L374.426 412.752C371.388 420.971 368.708 426.509 366.386 429.368C362.544 434.103 357.05 436.47 349.904 436.47C346.33 436.47 342.802 436.202 339.318 435.666V422.802C343.07 423.427 345.482 423.74 346.554 423.74C349.77 423.74 352.226 422.847 353.924 421.06C355.085 419.809 356.202 417.487 357.274 414.092L359.016 408.732ZM448.645 409V313.324H466.333L510.017 383.808H510.285V313.324H526.231V409H508.543L464.993 338.65H464.591V409H448.645ZM575.634 398.816C582.066 398.816 587.069 396.225 590.642 391.044C593.769 386.577 595.332 380.994 595.332 374.294C595.332 367.683 593.769 362.145 590.642 357.678C587.069 352.497 582.066 349.906 575.634 349.906C569.202 349.906 564.199 352.497 560.626 357.678C557.499 362.145 555.936 367.683 555.936 374.294C555.936 380.994 557.499 386.577 560.626 391.044C564.199 396.225 569.202 398.816 575.634 398.816ZM575.634 410.876C564.735 410.876 556.115 407.437 549.772 400.558C543.697 393.947 540.66 385.193 540.66 374.294C540.66 363.485 543.742 354.73 549.906 348.03C556.159 341.241 564.735 337.846 575.634 337.846C586.533 337.846 595.153 341.285 601.496 348.164C607.571 354.775 610.608 363.485 610.608 374.294C610.608 385.193 607.571 393.947 601.496 400.558C595.153 407.437 586.533 410.876 575.634 410.876ZM653.635 327.796V313.324H731.087V327.796H700.669V409H683.919V327.796H653.635ZM771.792 398.816C778.224 398.816 783.227 396.225 786.8 391.044C789.927 386.577 791.49 380.994 791.49 374.294C791.49 367.683 789.927 362.145 786.8 357.678C783.227 352.497 778.224 349.906 771.792 349.906C765.36 349.906 760.357 352.497 756.784 357.678C753.657 362.145 752.094 367.683 752.094 374.294C752.094 380.994 753.657 386.577 756.784 391.044C760.357 396.225 765.36 398.816 771.792 398.816ZM771.792 410.876C760.893 410.876 752.273 407.437 745.93 400.558C739.855 393.947 736.818 385.193 736.818 374.294C736.818 363.485 739.9 354.73 746.064 348.03C752.317 341.241 760.893 337.846 771.792 337.846C782.691 337.846 791.311 341.285 797.654 348.164C803.729 354.775 806.766 363.485 806.766 374.294C806.766 385.193 803.729 393.947 797.654 400.558C791.311 407.437 782.691 410.876 771.792 410.876ZM875.655 365.45V395.332H905.269C915.989 395.332 921.349 390.285 921.349 380.19C921.349 370.363 915.989 365.45 905.269 365.45H875.655ZM858.905 409V313.324H905.403C914.247 313.324 921.17 315.334 926.173 319.354C931.265 323.374 933.811 329.27 933.811 337.042C933.811 346.69 929.255 353.479 920.143 357.41V357.678C932.113 360.269 938.099 368.487 938.099 382.334C938.099 390.285 935.329 396.583 929.791 401.228C923.627 406.409 914.649 409 902.857 409H858.905ZM875.655 326.992V353.39H902.991C907.1 353.39 910.45 352.229 913.041 349.906C915.721 347.583 917.061 344.323 917.061 340.124C917.061 331.369 912.371 326.992 902.991 326.992H875.655ZM951.11 409V339.722H965.448V353.122H965.716C966.61 349.281 969.066 345.797 973.086 342.67C977.106 339.454 981.394 337.846 985.95 337.846C987.112 337.846 989.032 337.98 991.712 338.248V352.988C988.139 352.541 985.95 352.318 985.146 352.318C979.697 352.318 975.275 354.373 971.88 358.482C968.218 362.77 966.386 368.621 966.386 376.036V409H951.11Z" fill="black"/>
<path d="M1029.98 398.816C1036.41 398.816 1041.41 396.225 1044.99 391.044C1048.11 386.577 1049.68 380.994 1049.68 374.294C1049.68 367.683 1048.11 362.145 1044.99 357.678C1041.41 352.497 1036.41 349.906 1029.98 349.906C1023.55 349.906 1018.54 352.497 1014.97 357.678C1011.84 362.145 1010.28 367.683 1010.28 374.294C1010.28 380.994 1011.84 386.577 1014.97 391.044C1018.54 396.225 1023.55 398.816 1029.98 398.816ZM1029.98 410.876C1019.08 410.876 1010.46 407.437 1004.12 400.558C998.041 393.947 995.004 385.193 995.004 374.294C995.004 363.485 998.086 354.73 1004.25 348.03C1010.5 341.241 1019.08 337.846 1029.98 337.846C1040.88 337.846 1049.5 341.285 1055.84 348.164C1061.91 354.775 1064.95 363.485 1064.95 374.294C1064.95 385.193 1061.91 393.947 1055.84 400.558C1049.5 407.437 1040.88 410.876 1029.98 410.876ZM1078.05 409V313.324H1093.33V367.728L1120.93 339.722H1139.69L1113.16 365.182L1142.24 409H1123.61L1102.44 375.366L1093.33 384.21V409H1078.05ZM1212.47 378.314H1161.55C1161.55 384.121 1163.07 388.9 1166.11 392.652C1169.41 396.761 1174.1 398.816 1180.18 398.816C1188.75 398.816 1194.38 394.975 1197.06 387.292H1211.53C1209.92 394.707 1206.22 400.513 1200.41 404.712C1194.69 408.821 1187.95 410.876 1180.18 410.876C1169.55 410.876 1161.24 407.526 1155.25 400.826C1149.27 394.126 1146.27 385.327 1146.27 374.428C1146.27 364.244 1149.27 355.668 1155.25 348.7C1161.59 341.464 1169.77 337.846 1179.77 337.846C1189.51 337.846 1197.51 341.419 1203.76 348.566C1209.75 355.266 1212.74 363.485 1212.74 373.222C1212.74 374.919 1212.65 376.617 1212.47 378.314ZM1161.55 368.264H1197.19C1196.93 363.172 1195.18 358.839 1191.97 355.266C1188.84 351.693 1184.78 349.906 1179.77 349.906C1174.59 349.906 1170.3 351.648 1166.91 355.132C1163.52 358.616 1161.73 362.993 1161.55 368.264ZM1224.08 409V339.722H1238.42V353.122H1238.69C1239.58 349.281 1242.04 345.797 1246.06 342.67C1250.08 339.454 1254.37 337.846 1258.92 337.846C1260.08 337.846 1262 337.98 1264.68 338.248V352.988C1261.11 352.541 1258.92 352.318 1258.12 352.318C1252.67 352.318 1248.25 354.373 1244.85 358.482C1241.19 362.77 1239.36 368.621 1239.36 376.036V409H1224.08ZM1310.77 340.928V313.324H1327.52V340.928L1323.09 382.334H1315.19L1310.77 340.928ZM1310.1 409V392.25H1328.05V409H1310.1Z" fill="#FFDD15"/>
</svg>
