<svg width="1512" height="400" viewBox="0 0 1512 400" fill="none" xmlns="http://www.w3.org/2000/svg">
<rect width="1512" height="400" fill="#FFDD15"/>
<path fill-rule="evenodd" clip-rule="evenodd" d="M1010.14 198.122C1002.33 205.932 1002.33 218.596 1010.14 226.406L1183.74 400H1512V0H1208.26L1010.14 198.122Z" fill="black"/>
<path d="M198.422 216.108H215.172C215.172 223.076 217.539 228.347 222.274 231.92C226.473 235.047 232.19 236.61 239.426 236.61C246.305 236.61 251.531 235.091 255.104 232.054C258.141 229.463 259.66 226.158 259.66 222.138C259.66 216.242 257.025 212.311 251.754 210.346C251.039 210.078 241.525 207.443 223.212 202.44C209.097 198.599 202.04 190.514 202.04 178.186C202.04 169.163 205.703 162.061 213.028 156.88C219.549 152.324 227.545 150.046 237.014 150.046C247.466 150.046 256.087 152.637 262.876 157.818C270.112 163.446 273.73 171.039 273.73 180.598H256.98C256.265 169.342 249.387 163.714 236.344 163.714C231.699 163.714 227.813 164.563 224.686 166.26C220.755 168.493 218.79 171.799 218.79 176.176C218.79 182.34 222.587 186.449 230.18 188.504C237.773 190.469 246.975 192.926 257.784 195.874C263.769 197.661 268.459 200.966 271.854 205.79C274.891 210.167 276.41 214.991 276.41 220.262C276.41 230.267 272.435 237.95 264.484 243.31C257.605 247.955 248.895 250.278 238.354 250.278C226.741 250.278 217.405 247.553 210.348 242.104C202.576 236.119 198.601 227.453 198.422 216.108ZM331.677 224.684V213.294C329.711 214.545 326.853 215.483 323.101 216.108C319.706 216.555 316.311 217.001 312.917 217.448C304.609 218.877 300.455 222.719 300.455 228.972C300.455 232.009 302.152 234.332 305.547 235.94C308.137 237.191 311.13 237.816 314.525 237.816C318.634 237.816 322.341 236.833 325.647 234.868C329.667 232.456 331.677 229.061 331.677 224.684ZM346.953 196.946V232.59C346.953 236.074 348.159 237.816 350.571 237.816C352 237.816 353.251 237.727 354.323 237.548V248.134C351.017 249.295 347.801 249.876 344.675 249.876C337.885 249.876 333.955 247.062 332.883 241.434C327.165 247.062 319.17 249.876 308.897 249.876C302.197 249.876 296.703 248.179 292.415 244.784C287.591 241.121 285.179 236.074 285.179 229.642C285.179 221.959 288.037 216.421 293.755 213.026C297.239 210.971 303.269 209.319 311.845 208.068C321.493 206.639 326.317 205.924 326.317 205.924C330.515 204.673 332.615 202.127 332.615 198.286C332.615 192.033 327.835 188.906 318.277 188.906C308.718 188.906 303.626 192.569 303.001 199.894H287.725C288.618 184.529 299.115 176.846 319.215 176.846C326.808 176.846 333.106 178.365 338.109 181.402C344.005 184.975 346.953 190.157 346.953 196.946ZM382.016 247.732L355.752 178.722H372.502L390.592 230.446H390.86L408.414 178.722H424.36L397.426 251.752C394.388 259.971 391.708 265.509 389.386 268.368C385.544 273.103 380.05 275.47 372.904 275.47C369.33 275.47 365.802 275.202 362.318 274.666V261.802C366.07 262.427 368.482 262.74 369.554 262.74C372.77 262.74 375.226 261.847 376.924 260.06C378.085 258.809 379.202 256.487 380.274 253.092L382.016 247.732ZM471.645 248V152.324H489.333L533.017 222.808H533.285V152.324H549.231V248H531.543L487.993 177.65H487.591V248H471.645ZM598.634 237.816C605.066 237.816 610.069 235.225 613.642 230.044C616.769 225.577 618.332 219.994 618.332 213.294C618.332 206.683 616.769 201.145 613.642 196.678C610.069 191.497 605.066 188.906 598.634 188.906C592.202 188.906 587.199 191.497 583.626 196.678C580.499 201.145 578.936 206.683 578.936 213.294C578.936 219.994 580.499 225.577 583.626 230.044C587.199 235.225 592.202 237.816 598.634 237.816ZM598.634 249.876C587.735 249.876 579.115 246.437 572.772 239.558C566.697 232.947 563.66 224.193 563.66 213.294C563.66 202.485 566.742 193.73 572.906 187.03C579.159 180.241 587.735 176.846 598.634 176.846C609.533 176.846 618.153 180.285 624.496 187.164C630.571 193.775 633.608 202.485 633.608 213.294C633.608 224.193 630.571 232.947 624.496 239.558C618.153 246.437 609.533 249.876 598.634 249.876ZM676.635 166.796V152.324H754.087V166.796H723.669V248H706.919V166.796H676.635ZM794.792 237.816C801.224 237.816 806.227 235.225 809.8 230.044C812.927 225.577 814.49 219.994 814.49 213.294C814.49 206.683 812.927 201.145 809.8 196.678C806.227 191.497 801.224 188.906 794.792 188.906C788.36 188.906 783.357 191.497 779.784 196.678C776.657 201.145 775.094 206.683 775.094 213.294C775.094 219.994 776.657 225.577 779.784 230.044C783.357 235.225 788.36 237.816 794.792 237.816ZM794.792 249.876C783.893 249.876 775.273 246.437 768.93 239.558C762.855 232.947 759.818 224.193 759.818 213.294C759.818 202.485 762.9 193.73 769.064 187.03C775.317 180.241 783.893 176.846 794.792 176.846C805.691 176.846 814.311 180.285 820.654 187.164C826.729 193.775 829.766 202.485 829.766 213.294C829.766 224.193 826.729 232.947 820.654 239.558C814.311 246.437 805.691 249.876 794.792 249.876ZM898.655 204.45V234.332H928.269C938.989 234.332 944.349 229.285 944.349 219.19C944.349 209.363 938.989 204.45 928.269 204.45H898.655ZM881.905 248V152.324H928.403C937.247 152.324 944.17 154.334 949.173 158.354C954.265 162.374 956.811 168.27 956.811 176.042C956.811 185.69 952.255 192.479 943.143 196.41V196.678C955.113 199.269 961.099 207.487 961.099 221.334C961.099 229.285 958.329 235.583 952.791 240.228C946.627 245.409 937.649 248 925.857 248H881.905ZM898.655 165.992V192.39H925.991C930.1 192.39 933.45 191.229 936.041 188.906C938.721 186.583 940.061 183.323 940.061 179.124C940.061 170.369 935.371 165.992 925.991 165.992H898.655ZM974.11 248V178.722H988.448V192.122H988.716C989.61 188.281 992.066 184.797 996.086 181.67C1000.11 178.454 1004.39 176.846 1008.95 176.846C1010.11 176.846 1012.03 176.98 1014.71 177.248V191.988C1011.14 191.541 1008.95 191.318 1008.15 191.318C1002.7 191.318 998.275 193.373 994.88 197.482C991.218 201.77 989.386 207.621 989.386 215.036V248H974.11Z" fill="black"/>
<path d="M1052.98 237.816C1059.41 237.816 1064.41 235.225 1067.99 230.044C1071.11 225.577 1072.68 219.994 1072.68 213.294C1072.68 206.683 1071.11 201.145 1067.99 196.678C1064.41 191.497 1059.41 188.906 1052.98 188.906C1046.55 188.906 1041.54 191.497 1037.97 196.678C1034.84 201.145 1033.28 206.683 1033.28 213.294C1033.28 219.994 1034.84 225.577 1037.97 230.044C1041.54 235.225 1046.55 237.816 1052.98 237.816ZM1052.98 249.876C1042.08 249.876 1033.46 246.437 1027.12 239.558C1021.04 232.947 1018 224.193 1018 213.294C1018 202.485 1021.09 193.73 1027.25 187.03C1033.5 180.241 1042.08 176.846 1052.98 176.846C1063.88 176.846 1072.5 180.285 1078.84 187.164C1084.91 193.775 1087.95 202.485 1087.95 213.294C1087.95 224.193 1084.91 232.947 1078.84 239.558C1072.5 246.437 1063.88 249.876 1052.98 249.876ZM1101.05 248V152.324H1116.33V206.728L1143.93 178.722H1162.69L1136.16 204.182L1165.24 248H1146.61L1125.44 214.366L1116.33 223.21V248H1101.05ZM1235.47 217.314H1184.55C1184.55 223.121 1186.07 227.9 1189.11 231.652C1192.41 235.761 1197.1 237.816 1203.18 237.816C1211.75 237.816 1217.38 233.975 1220.06 226.292H1234.53C1232.92 233.707 1229.22 239.513 1223.41 243.712C1217.69 247.821 1210.95 249.876 1203.18 249.876C1192.55 249.876 1184.24 246.526 1178.25 239.826C1172.27 233.126 1169.27 224.327 1169.27 213.428C1169.27 203.244 1172.27 194.668 1178.25 187.7C1184.59 180.464 1192.77 176.846 1202.77 176.846C1212.51 176.846 1220.51 180.419 1226.76 187.566C1232.75 194.266 1235.74 202.485 1235.74 212.222C1235.74 213.919 1235.65 215.617 1235.47 217.314ZM1184.55 207.264H1220.19C1219.93 202.172 1218.18 197.839 1214.97 194.266C1211.84 190.693 1207.78 188.906 1202.77 188.906C1197.59 188.906 1193.3 190.648 1189.91 194.132C1186.52 197.616 1184.73 201.993 1184.55 207.264ZM1247.08 248V178.722H1261.42V192.122H1261.69C1262.58 188.281 1265.04 184.797 1269.06 181.67C1273.08 178.454 1277.37 176.846 1281.92 176.846C1283.08 176.846 1285 176.98 1287.68 177.248V191.988C1284.11 191.541 1281.92 191.318 1281.12 191.318C1275.67 191.318 1271.25 193.373 1267.85 197.482C1264.19 201.77 1262.36 207.621 1262.36 215.036V248H1247.08ZM1333.77 179.928V152.324H1350.52V179.928L1346.09 221.334H1338.19L1333.77 179.928ZM1333.1 248V231.25H1351.05V248H1333.1Z" fill="#FFDD15"/>
</svg>
