<svg width="31" height="30" viewBox="0 0 31 30" fill="none" xmlns="http://www.w3.org/2000/svg">
<circle cx="15.5" cy="15" r="15" fill="#7F7F7F"/>
<path d="M23.1572 10.8735C23.5 12.21 23.5 15 23.5 15C23.5 15 23.5 17.79 23.1572 19.1265C22.9667 19.8653 22.4095 20.4465 21.7037 20.643C20.422 21 16 21 16 21C16 21 11.5802 21 10.2962 20.643C9.5875 20.4435 9.031 19.863 8.84275 19.1265C8.5 17.79 8.5 15 8.5 15C8.5 15 8.5 12.21 8.84275 10.8735C9.03325 10.1348 9.5905 9.5535 10.2962 9.357C11.5802 9 16 9 16 9C16 9 20.422 9 21.7037 9.357C22.4125 9.5565 22.969 10.137 23.1572 10.8735V10.8735ZM14.5 17.625L19 15L14.5 12.375V17.625Z" fill="white"/>
</svg>
